<?xml version="1.0" encoding="utf-8"?>
<!-- Generator: Adobe Illustrator 16.0.0, SVG Export Plug-In . SVG Version: 6.00 Build 0)  -->
<!DOCTYPE svg PUBLIC "-//W3C//DTD SVG 1.1//EN" "http://www.w3.org/Graphics/SVG/1.1/DTD/svg11.dtd">
<svg version="1.1" id="레이어_1" xmlns="http://www.w3.org/2000/svg" xmlns:xlink="http://www.w3.org/1999/xlink" x="0px"
	 y="0px" width="612px" height="122.4px" viewBox="0 334.8 612 122.4" enable-background="new 0 334.8 612 122.4"
	 xml:space="preserve">
<g id="bg">
</g>
<g id="Layer_1">
	<g>
		<rect y="334.8" fill="#2980B9" width="612" height="122.4"/>
		<g>
			<path fill="#FAFAFA" d="M243.971,393.457c0-1.799,0-6.845,0-6.845l-7.457,0.086v34.428c0,0,5.076,0,7.87,0
				c0-0.991,0-1.824,0-2.656c0-4.422-0.123-8.85,0.061-13.263c0.086-2.047,0.453-4.207,1.252-6.076
				c1.67-3.917,4.853-5.943,9.165-5.971c3.121-0.021,4.96,1.487,5.544,4.538c0.217,1.132,0.272,2.311,0.275,3.47
				c0.028,5.817,0.009,11.635,0.025,17.455c0.003,0.82,0.18,2.552,0.18,2.552h7.714c0,0,0.144-1.744,0.144-2.5
				c0.009-6.595,0.012-13.186-0.006-19.78c-0.003-1.162-0.021-2.334-0.177-3.482c-0.594-4.397-2.531-7.849-7.066-9.165
				c-5.78-1.677-12.273-0.202-16,5.055L243.971,393.457z"/>
			<path fill="#FAFAFA" d="M151.283,378.433c-1.206,1.891-2.438,3.828-3.81,5.982c-0.808-0.545-1.478-1.025-2.172-1.463
				c-4.266-2.671-8.837-4.122-13.926-3.338c-6.974,1.077-11.882,5.563-13.464,12.411c-1.203,5.206-0.551,10.208,2.31,14.764
				c4.471,7.121,13.385,9.67,21.27,6.044c2.369-1.089,4.523-2.649,7.081-4.18c1.264,1.731,2.647,3.629,4.002,5.489
				c-6.852,8.482-24.544,11.738-35.689,1.806c-10.147-9.042-11.53-26.515-0.973-37.133
				C126.592,368.068,144.643,370.981,151.283,378.433z"/>
			<path fill="#FAFAFA" d="M173.184,385.538c6.784,0.336,12.118,2.466,16.047,7.616c6.662,8.73,4.162,25.697-12.004,28.607
				c-5.407,0.974-10.566,0.046-15.107-3.108c-6.521-4.528-8.672-11.04-7.24-18.577c1.45-7.644,6.567-12.069,13.975-13.92
				C170.42,385.764,172.064,385.691,173.184,385.538z M162.789,403.687c0.153,4.284,1.667,7.718,5.321,9.902
				c5.049,3.021,11.459,1.42,14.474-3.51c3.28-5.364,1.729-12.741-3.378-15.854c-3.547-2.16-7.204-2.273-10.833-0.242
				C164.555,396.116,162.997,399.592,162.789,403.687z"/>
			<path fill="#FAFAFA" d="M302.331,411.643l2.384,6.304c-6.729,4.532-13.917,5.554-21.417,2.319
				c-7.882-3.399-10.857-11.72-10.11-18.513c0.517-4.7,2.292-8.801,5.909-12.023c4.862-4.333,13.476-5.45,19.214-2.387
				c4.458,2.381,6.777,6.285,7.49,11.132c0.3,2.032,0.049,6.616,0.049,6.616s-16.168-0.074-23.984,0.195
				c0,3.488,1.891,6.98,5.254,8.586c4.376,2.09,8.599,1.332,12.724-0.779L302.331,411.643z M282.315,399.412
				c2.338,0,13.274-0.083,15.181-0.083c0-3.972-2.313-7.426-6.708-7.426C284.531,391.903,282.315,395.336,282.315,399.412z"/>
			<path fill="#FAFAFA" d="M204.919,393.457c0-1.799,0-6.845,0-6.845l-7.457,0.086v34.474c0,0,5.076,0,7.87,0
				c0-0.992,0-1.87,0-2.702c0-4.422-0.123-8.85,0.061-13.263c0.086-2.047,0.453-4.207,1.252-6.076
				c1.67-3.917,4.853-5.943,9.165-5.971c3.121-0.021,4.96,1.487,5.545,4.538c0.217,1.132,0.272,2.311,0.275,3.47
				c0.027,5.817-0.016,11.635,0,17.455c0.003,0.819,0,2.552,0,2.552h8.063c0,0,0-1.744,0-2.5c0.009-6.595,0.018-13.186,0-19.78
				c-0.003-1.162-0.028-2.334-0.184-3.482c-0.594-4.397-2.531-7.849-7.065-9.165c-5.781-1.677-12.274-0.202-16.001,5.055
				L204.919,393.457z"/>
			<path fill="#FAFAFA" d="M341.79,390.578c-1.347,2.065-2.437,3.736-3.52,5.395c-1.606-0.866-2.989-1.705-4.452-2.375
				c-1.86-0.854-3.847-1.196-5.905-0.994c-5.852,0.578-9.976,5.264-9.915,11.254c0.062,5.959,4.3,10.671,10.059,11.186
				c3.225,0.287,6.142-0.628,8.85-2.305c0.845-0.523,1.649-1.111,2.687-1.812c1.059,1.909,2.057,3.702,3.054,5.505
				c-1.879,2.234-4.226,3.455-6.711,4.326c-5.829,2.048-11.631,1.929-17.139-1.021c-5.64-3.02-8.593-7.889-9.049-14.256
				c-0.271-3.789,0.245-7.428,2.2-10.778c3.333-5.707,8.468-8.47,14.884-9.03c4.113-0.358,8.055,0.41,11.653,2.509
				C339.602,388.831,340.587,389.693,341.79,390.578z"/>
			<path fill="#FAFAFA" d="M365.217,421.469c-3.213,0.211-6.346-0.096-9.284-1.549c-3.721-1.842-5.854-4.859-6.062-8.966
				c-0.224-4.406-0.132-8.831-0.168-13.247c-0.006-0.697,0-4.314,0-4.314h-4.443c0-2.191,0-4.131,0-6.194
				c0.899-0.058,2.405,0,2.405,0h2.038v-10.251h8.108v10.251h7.901v6.194h-7.901c0,0,0.004,1.875,0,2.616
				c-0.018,3.641-0.024,7.286,0,10.927c0.034,4.831,2.041,6.885,6.87,7.411c0.456,0.049,0.909,0.08,1.649,0.102L365.217,421.469z"/>
			<path fill="#FAFAFA" d="M429.597,421.288c0-16.147,0-48.063,0-48.063h1.334c0,0,11.806-0.141,17.65,0.416
				c7.744,0.737,13.761,4.578,17.23,11.769c2.029,4.202,2.656,8.739,2.424,13.363c-0.193,3.813-0.906,7.543-2.705,10.976
				c-3.439,6.564-9.033,10.178-16.225,11.047c-4.517,0.548-9.122,0.38-13.688,0.496
				C433.697,421.334,431.775,421.288,429.597,421.288z M431.852,419.029c4.801-0.055,11.493,0.074,16.264-0.373
				c8.439-0.793,14.658-6.371,16.741-14.565c1.19-4.676,1.145-9.37-0.101-14.03c-1.365-5.104-4.254-9.098-8.901-11.698
				c-3.312-1.852-6.903-2.748-10.695-2.782c-3.721-0.031-7.444-0.006-11.165,0c-0.533,0-2.137,0-2.137,0s0,2.326,0,3.317
				c-0.012,12.329-0.009,24.657-0.009,36.989v3.143H431.852z"/>
			<path fill="#FAFAFA" d="M500.298,421.27l-13.201-21.787l-1.539-2.381l-9.293,0.04v2.147c0,0,0,10.551,0,15.824
				c0,1.924,0,6.153,0,6.153h-2.335c0,0,0-31.901,0-47.978c0.618-0.046,2.329,0,2.329,0s0,1.738,0,2.491
				c0.009,5.352,0,10.704,0,16.056c0,0.542,0,1.628,0,1.628v1.411h9.296l1.056-1.555c0,0,4.921-7.714,7.381-11.573
				c1.502-2.353,5.364-8.461,5.364-8.461h2.959l-14.676,22.69l1.089,1.708l14.664,23.577h-3.094V421.27z"/>
			<path fill="#FAFAFA" d="M419.805,378.188c-2.589-1.769-5.236-3.02-8.342-3.271c-3.703-0.3-7.09,0.465-9.942,3.005
				c-4.445,3.96-4.194,10.389,0.646,13.813c1.631,1.154,3.461,2.05,5.266,2.928c2.298,1.117,4.682,2.056,6.995,3.149
				c1.114,0.526,2.188,1.169,3.21,1.863c4.449,3.023,6.19,7.249,5.175,12.491c-0.97,4.994-4.201,7.969-9.006,9.324
				c-6.852,1.931-14.101-1.228-18.81-5.307c0.545-0.578,1.01-1.068,1.45-1.536c1.536,0.995,2.916,1.999,4.395,2.821
				c2.978,1.658,6.19,2.439,9.611,2.203c2.546-0.174,4.847-1.006,6.79-2.699c4.104-3.574,4.403-9.789,0.557-13.65
				c-1.132-1.135-2.472-2.148-3.889-2.895c-2.531-1.337-5.232-2.348-7.778-3.653c-2.265-1.163-4.572-2.344-6.586-3.877
				c-5.088-3.874-4.442-11.15-1.566-14.865c1.873-2.417,4.257-4.131,7.182-4.881c5.704-1.462,11.068-0.63,15.918,2.861
				L419.805,378.188z"/>
			<rect x="380.294" y="360.023" fill="#FAFAFA" width="2.239" height="71.956"/>
		</g>
	</g>
</g>
</svg>
